<svg
						xmlns:dc="http://purl.org/dc/elements/1.1/"
						xmlns:cc="http://creativecommons.org/ns#"
						xmlns:rdf="http://www.w3.org/1999/02/22-rdf-syntax-ns#"
						xmlns:svg="http://www.w3.org/2000/svg"
						xmlns="http://www.w3.org/2000/svg"
						xmlns:xlink="http://www.w3.org/1999/xlink"
						version="1.1"
						width="100"
						height="100"
						id="svg2">
					  <defs
						  id="defs4">
						 <linearGradient
							 id="linearGradient3881">
							<stop
								id="stop3883"
								style="stop-color:#b3b3b3;stop-opacity:1"
								offset="0" />
							<stop
								id="stop3885"
								style="stop-color:#b3b3b3;stop-opacity:0"
								offset="1" />
						 </linearGradient>
						 <linearGradient
							 id="linearGradient3840">
							<stop
								id="stop3842"
								style="stop-color:#ffffff;stop-opacity:1"
								offset="0" />
							<stop
								id="stop3844"
								style="stop-color:#646464;stop-opacity:1"
								offset="1" />
						 </linearGradient>
						 <linearGradient
							 id="linearGradient3832">
							<stop
								id="stop3834"
								style="stop-color:#ffffff;stop-opacity:1"
								offset="0" />
							<stop
								id="stop3836"
								style="stop-color:#ffffff;stop-opacity:0"
								offset="1" />
						 </linearGradient>
						 <filter
							 x="-0.12582983"
							 y="-0.45983139"
							 width="1.2516598"
							 height="1.9196628"
							 color-interpolation-filters="sRGB"
							 id="filter3823">
							<feGaussianBlur
								id="feGaussianBlur3825"
								stdDeviation="4.2270959" />
						 </filter>
						 <linearGradient
							 x1="53.4375"
							 y1="10.640625"
							 x2="53.5625"
							 y2="37.890625"
							 id="linearGradient3838"
							 xlink:href="#linearGradient3832"
							 gradientUnits="userSpaceOnUse"
							 gradientTransform="matrix(0.86054199,0,0,0.86054199,7.0523833,957.12364)" />
						 <radialGradient
							 cx="47.953625"
							 cy="31.613041"
							 r="17.953623"
							 fx="47.953625"
							 fy="31.613041"
							 id="radialGradient3846"
							 xlink:href="#linearGradient3840"
							 gradientUnits="userSpaceOnUse" />
						 <radialGradient
							 cx="49.600895"
							 cy="1013.1265"
							 r="30.811495"
							 fx="49.600895"
							 fy="1013.1265"
							 id="radialGradient3854"
							 xlink:href="#linearGradient3840"
							 gradientUnits="userSpaceOnUse"
							 gradientTransform="matrix(0.88665187,-0.01446337,0.01269188,0.77805365,-7.094729,227.44116)" />
						 <filter
							 x="-0.1276187"
							 y="-0.62657577"
							 width="1.2552373"
							 height="2.2531517"
							 color-interpolation-filters="sRGB"
							 id="filter3877">
							<feGaussianBlur
								id="feGaussianBlur3879"
								stdDeviation="4.0410796" />
						 </filter>
						 <linearGradient
							 x1="51.239811"
							 y1="964.54352"
							 x2="51.394032"
							 y2="1029.774"
							 id="linearGradient3887"
							 xlink:href="#linearGradient3881"
							 gradientUnits="userSpaceOnUse" />
					  </defs>
					  <metadata
						  id="metadata7">
						 <rdf:RDF>
							<cc:Work
								rdf:about="">
							  <dc:format>image/svg+xml</dc:format>
							  <dc:type
								  rdf:resource="http://purl.org/dc/dcmitype/StillImage" />
							  <dc:title></dc:title>
							</cc:Work>
						 </rdf:RDF>
					  </metadata>
					  <g
						  transform="translate(0,-952.36217)"
						  id="layer1">
						 <rect
							 width="75.996628"
							 height="15.47872"
							 ry="1.7198578"
							 x="12.081171"
							 y="1028.5522"
							 id="rect3859"
							 style="opacity:0.52244897;fill:#000000;stroke:#000000;stroke-width:0.45130521;stroke-miterlimit:4;stroke-dasharray:none;filter:url(#filter3877)" />
						 <rect
							 width="75.996628"
							 height="75.996628"
							 ry="8.4440699"
							 x="12.081171"
							 y="962.78436"
							 id="rect3770"
							 style="fill:url(#linearGradient3887);fill-opacity:1;stroke:#ffffff;stroke-width:3;stroke-miterlimit:4;stroke-dasharray:none" />
						 <path
							 d="m 9.6875,68.25 0,13.09375 c 0,4.961648 4.007102,8.96875 8.96875,8.96875 l 62.6875,0 c 4.961648,0 8.96875,-4.007102 8.96875,-8.96875 l 0,-13.09375 -80.625,0 z"
							 transform="matrix(0.84440695,0,0,0.84440695,7.8591365,958.56234)"
							 id="rect3790"
							 style="opacity:0.33061224;fill:#000000;stroke:#000000;stroke-width:3.55278921;stroke-miterlimit:4;stroke-dasharray:none;filter:url(#filter3823)" />
						 <path
							 d="m 49.95358,1007.4657 c -14.135862,0 -25.595241,11.4593 -25.595241,25.5952 0,1.5927 0.157921,3.1416 0.43628,4.6537 l 50.317914,0 c 0.278367,-1.5121 0.43628,-3.061 0.43628,-4.6537 0,-14.1359 -11.459371,-25.5952 -25.595233,-25.5952 z"
							 id="path3763"
							 style="fill:url(#radialGradient3854);fill-opacity:1;stroke:#e6e6e6;stroke-width:3;stroke-linecap:round;stroke-linejoin:round;stroke-miterlimit:4;stroke-opacity:1;stroke-dasharray:none" />
						 <path
							 d="m 65,42.5 a 17.5,17.5 0 1 1 -35,0 17.5,17.5 0 1 1 35,0 z"
							 transform="matrix(0.9307359,0,0,0.9307359,5.7436273,947.29464)"
							 id="path3768"
							 style="fill:url(#radialGradient3846);fill-opacity:1;stroke:#ececec;stroke-width:3.22325587;stroke-miterlimit:4;stroke-dasharray:none" />
						 <path
							 d="m 23.590926,966.10554 c -4.191124,0 -7.556635,3.36552 -7.556635,7.55664 l 0,13.79556 c 11.45705,0.55473 26.68458,1.42477 36.196548,2.58163 10.132822,1.23239 20.112646,2.54787 31.893838,5.67417 l 0,-22.05136 c 0,-4.19112 -3.365511,-7.55664 -7.556635,-7.55664 l -52.977116,0 z"
							 id="rect3827"
							 style="fill:url(#linearGradient3838);fill-opacity:1;stroke:none" />
					  </g>
					</svg>